<svg xmlns="http://www.w3.org/2000/svg" height="48" viewBox="0 -960 960 960" width="48"><path d="M300-294q11.6 0 20.3-7.7 8.7-7.7 8.7-20.3 0-11.6-8.7-20.3-8.7-8.7-20.3-8.7-11.6 0-19.8 8.7-8.2 8.7-8.2 20.3 0 12.6 8.2 20.3 8.2 7.7 19.8 7.7Zm0-158q11.6 0 20.3-8.2 8.7-8.2 8.7-19.8 0-11.6-8.7-20.3-8.7-8.7-20.3-8.7-11.6 0-19.8 8.7-8.2 8.7-8.2 20.3 0 11.6 8.2 19.8 8.2 8.2 19.8 8.2Zm0-159q11.6 0 20.3-7.579 8.7-7.579 8.7-20Q329-650 320.3-659t-20.3-9q-11.6 0-19.8 8.781-8.2 8.78-8.2 20.5 0 12.719 8.2 20.219 8.2 7.5 19.8 7.5Zm133 317h241v-57H433v57Zm0-157h241v-57H433v57Zm0-159h241v-57H433v57ZM189-98q-37.175 0-64.088-26.912Q98-151.825 98-189v-582q0-37.588 26.912-64.794Q151.825-863 189-863h582q37.588 0 64.794 27.206Q863-808.588 863-771v582q0 37.175-27.206 64.088Q808.588-98 771-98H189Zm0-91h582v-582H189v582Zm0-582v582-582Z"/></svg>