<svg xmlns="http://www.w3.org/2000/svg" height="48" viewBox="0 -960 960 960" width="48"><path d="M127-381q-43 0-73-29.87t-30-72.542q0-44.171 30.375-74.38Q84.75-588 127-588v-150q0-22.125 17.438-39.562Q161.875-795 184-795h192q0-43 30.591-73 30.59-30 73.291-30 42.701 0 73.41 30.333Q584-837.333 584-795h192q22.125 0 39.562 17.438Q833-760.125 833-738v150q43 0 73 30.292 30 30.291 30 73.826 0 42.867-30.042 72.875Q875.917-381 833-381v222q0 22.35-17.438 39.175Q798.125-103 776-103H184q-22.125 0-39.562-16.825Q127-136.65 127-159v-222Zm222.647-104q17.711 0 30.532-12.968Q393-510.936 393-529.147t-12.806-31.032Q367.387-573 349.235-573q-17.735 0-30.985 12.723T305-528.235q0 17.735 13.468 30.485T349.647-485Zm261.059 0q17.711 0 31.502-12.968Q656-510.936 656-529.147t-13.777-31.032Q628.446-573 610.294-573q-17.735 0-30.015 12.723Q568-547.554 568-528.235q0 17.735 12.498 30.485Q592.995-485 610.706-485ZM325-288h310v-68H325v68Zm-107 95h524v-511H218v511Zm0 0v-511 511Z"/></svg>