<svg xmlns="http://www.w3.org/2000/svg" height="48" viewBox="0 -960 960 960" width="48"><path d="M228.353-8Q172.5-8 133.25-47.691 94-87.382 94-142.941t39.417-95.309Q172.833-278 228-278q14.451 0 28.338 2.5Q270.224-273 279-269l72-93q-18-24-27-52.5t-5-58.091L212-513q-16 26-44.214 41-28.215 15-64.786 15-55.583 0-95.292-39.382Q-32-535.765-32-590.882q0-55.535 39.794-96.326Q47.588-728 103.294-728q55.206 0 94.456 40.5T238-590.846v2.013-.034L343-547q18-30 43.5-46.5t54.5-25.872V-734q-40-11-68-47.4t-28-81.948Q345-919 384.691-959.5t95.25-40.5q55.559 0 95.809 40.5T616-863.348q0 45.548-29 81.948-29 36.4-67 47.4v115q28 8 54 26t46.386 46L723-588.733V-591q-1-55.417 38.691-96.208Q801.382-728 856.941-728t96.309 40.397Q994-647.206 994-591.353t-40.5 95.103Q913-457 856.659-457q-36.059 0-64.359-14.5Q764-486 747-514l-105 41q2 30-7 59t-26 52l74 95q7.776-5 21.162-8 13.387-3 27.4-3 56.521 0 96.48 39.588 39.958 39.588 39.958 95 0 55.829-40.088 95.62Q787.824-8 732.412-8q-55.829 0-95.62-39.458Q597-86.917 597-143.286q0-23.48 5.854-41.889Q608.708-203.583 620-221l-72-92q-34.149 15-69.31 15-35.16 0-66.69-15l-71 93q10.375 17.208 16.688 35.185Q364-166.839 364-143.286q0 56.37-39.897 95.828Q284.206-8 228.353-8ZM102.737-536Q125-536 142-552.237q17-16.237 17-39T142.175-630.5Q125.351-647 102.588-647t-38.676 16.325Q48-614.351 48-591.088q0 22.263 15.737 38.676Q79.474-536 102.737-536Zm125 448Q251-88 267.5-103.737q16.5-15.737 16.5-39Q284-165 267.675-182q-16.324-17-39.587-17t-39.176 16.825Q173-165.351 173-143.088q0 23.263 15.737 39.176Q204.474-88 227.737-88Zm252-720Q503-808 519.5-824.237q16.5-16.237 16.5-38.5Q536-886 519.675-902.5 503.351-919 480.088-919t-39.176 16.325Q425-886.351 425-863.088q0 22.263 15.737 38.676 15.737 16.412 39 16.412Zm.749 419Q510-389 531-409.986q21-20.986 21-50.5T531.21-511q-20.79-21-50.9-21Q451-532 430-511.21q-21 20.79-21 50.9Q409-431 429.986-410q20.986 21 50.5 21ZM731.737-88Q755-88 771.5-103.737q16.5-15.737 16.5-39Q788-165 771.675-182q-16.324-17-39.587-17t-39.176 16.825Q677-165.351 677-143.088q0 23.263 15.737 39.176Q708.474-88 731.737-88Zm125.5-448Q880-536 896.5-552.237q16.5-16.237 16.5-39T896.675-630.5Q880.351-647 857.088-647q-22.263 0-38.676 16.325Q802-614.351 802-591.088q0 22.263 16.237 38.676 16.237 16.412 39 16.412ZM480-863ZM103-591Zm377 131Zm377-131ZM228-143Zm504 0Z"/></svg>