<svg xmlns="http://www.w3.org/2000/svg" height="48" viewBox="0 -960 960 960" width="48"><path d="M754.916-733Q720-733 695.5-757.106 671-781.211 671-815.168 671-849 695.486-874t58.735-25q34.124 0 58.952 24.906Q838-849.187 838-815.633q0 34.142-24.584 58.388Q788.832-733 754.916-733ZM670-74v-342q0-26.178-12.123-47.22Q645.753-484.262 621-491l52-141q8-25 31.165-40t50.5-15Q782-687 805-671.5t31 39.5l93 246q8 23-5.5 43T886-323h-58v204q0 18.45-13.275 31.725Q801.45-74 783-74H670ZM495.176-496q-29.593 0-49.384-20.292Q426-536.583 426-566.176q0-29.594 19.615-49.709Q465.23-636 494.824-636q29.593 0 49.884 20.115Q565-595.77 565-566.176q0 29.593-20.115 49.884Q524.77-496 495.176-496ZM194.252-733q-35.777 0-60.014-24.106Q110-781.211 110-815.168 110-849 133.972-874t59.444-25q33.934 0 58.259 24.906Q276-849.187 276-815.633q0 34.142-24.192 58.388Q227.617-733 194.252-733ZM147.124-74q-20.574 0-33.349-13.275Q101-100.55 101-119v-245H76q-18.85-2-29.925-15.062Q35-392.125 35-409v-185q0-38.175 27.406-64.588Q89.813-685 127.435-685h131.13q36.623 0 64.529 26.412Q351-632.175 351-594v185q0 16.875-11.575 29.938Q327.85-366 310-364h-24v245q0 18.45-13.075 31.725Q259.85-74 240-74h-92.876ZM477-74q-20.85 0-33.425-13.275Q431-100.55 431-119v-125h-20q-14.75-7-22.375-18.125T381-290v-102q0-29.5 19.25-48.75T449-460h93q28.5 0 48.25 19.25T610-392v102q0 16.75-8.125 27.875T580-244h-20v125q0 18.45-13.075 31.725Q533.85-74 514-74h-37Z"/></svg>