<svg xmlns="http://www.w3.org/2000/svg" height="20" viewBox="0 -960 960 960" width="20"><path d="m608-298 69-69-147-149v-208h-98v250l176 176ZM480-64q-86.016 0-161.668-32.52T185.86-185.86q-56.82-56.82-89.34-132.618Q64-394.277 64-480.458q0-86.438 32.579-162.503 32.579-76.066 89.5-132.552Q243-832 318.696-864q75.697-32 161.762-32 86.428 0 162.492 32.24 76.063 32.24 132.348 88.58 56.286 56.34 88.494 132.503Q896-566.513 896-479.917q0 86.293-32 161.605Q832-243 775.513-186.079q-56.486 56.921-132.683 89.5Q566.634-64 480-64Zm0-416Zm.477 318q132.477 0 225-93T798-480.477q0-132.477-92.523-225t-225-92.523Q348-798 255-705.477t-93 225Q162-348 255-255t225.477 93Z"/></svg>