<svg xmlns="http://www.w3.org/2000/svg" height="48" viewBox="0 -960 960 960" width="48"><path d="M189-98q-37.175 0-64.088-26.912Q98-151.825 98-189v-582q0-37.588 26.912-64.794Q151.825-863 189-863h582q37.588 0 64.794 27.206Q863-808.588 863-771v582q0 37.175-27.206 64.088Q808.588-98 771-98H189Zm0-91h582v-582H189v582Zm36-81h511L578-487 446-317l-93-127-128 174Zm-36 81v-582 582Zm151.353-366q28.147 0 46.897-18.603t18.75-46.75q0-28.147-19.103-46.897T339.647-686q-28.147 0-46.397 19.103T275-619.647q0 28.147 18.603 46.397t46.75 18.25Z"/></svg>