<svg xmlns="http://www.w3.org/2000/svg" height="48" viewBox="0 -960 960 960" width="48"><path d="M745-433v-124H621v-69h124v-123h69v123h123v69H814v124h-69Zm-383.044-60q-76.826 0-124.391-48.065Q190-589.13 190-665.296q0-76.167 47.406-123.935Q284.812-837 361.637-837q76.825 0 125.094 47.656Q535-741.688 535-664.796q0 75.666-48.109 123.731Q438.781-493 361.956-493ZM20-130v-116q0-42.887 21.695-75.661Q63.391-354.435 102-372q76-35 136.059-48.5T361.1-434q64.9 0 124.9 14t136 48q38.609 17.42 60.805 49.671Q705-290.078 705-246.227V-130H20Zm91-91h502v-21q0-15.39-9.274-30.13-9.275-14.74-24.996-20.985Q513-324 466-333q-47-9-105-9-56 0-103.5 9t-112.071 39.844q-16.479 6.237-25.454 20.992Q111-257.409 111-242v21Zm250.965-363Q397-584 420-607.346t23-57.619q0-34.685-22.965-58.36Q397.071-747 362.535-747 328-747 304.5-723.279T281-665.46q0 34.51 23.346 57.985T361.965-584Zm.035-81Zm0 444Z"/></svg>