<svg xmlns="http://www.w3.org/2000/svg" height="48" viewBox="0 -960 960 960" width="48"><path d="M682-139v-120H563v-68h119v-119h69v119h120v68H751v120h-69ZM438-258H281q-93.505 0-157.753-64.268Q59-386.536 59-479.845q0-93.308 64.247-158.231Q187.495-703 281-703h157v92H281.429q-56.512 0-93.971 37.765-37.458 37.764-37.458 93Q150-425 187.458-387q37.459 38 93.971 38H438v91ZM310-445v-69h307v69H310Zm592-35h-92q0-55-37.583-93-37.584-38-92.988-38H518v-92h161q93.185 0 158.092 64.908Q902-573.185 902-480Z"/></svg>