<svg xmlns="http://www.w3.org/2000/svg" height="24" viewBox="0 -960 960 960" width="24"><path d="M480-44.652q-89.435 0-169.055-34.24-79.619-34.238-138.717-93.336-59.098-59.098-93.337-138.717Q44.652-390.565 44.652-480q0-89.717 34.24-169.196 34.238-79.478 93.336-138.576t138.717-93.337q79.62-34.239 169.055-34.239 89.717 0 169.173 34.187 79.455 34.187 138.628 93.36 59.173 59.173 93.36 138.628Q915.348-569.717 915.348-480q0 89.435-34.239 169.055-34.239 79.619-93.337 138.717-59.098 59.098-138.576 93.337Q569.717-44.652 480-44.652Zm0-207.087q95.109 0 161.685-66.576Q708.261-384.891 708.261-480q0-95.109-66.576-161.685Q575.109-708.261 480-708.261q-95.109 0-161.685 66.576Q251.739-575.109 251.739-480q0 95.109 66.576 161.685Q384.891-251.739 480-251.739Z"/></svg>