<svg xmlns="http://www.w3.org/2000/svg" height="48" viewBox="0 -960 960 960" width="48"><path d="M22-130v-116q0-42.313 21.383-75.459t59.661-50.563Q178-404 238.505-419q60.504-15 124.572-15 65.985 0 125.954 15Q549-404 624-372q38.156 15.844 60.078 49.149Q706-289.547 706-246.055V-130H22Zm755 0v-114q0-65-32.5-108T659-432q59.766 9.657 112.883 24.329Q825-393 860.88-375.561q34.958 18.329 56.539 52.753Q939-288.385 939-240.946V-130H777ZM363.748-494q-71.298 0-115.023-43.526Q205-581.052 205-652.301t43.776-115.474Q292.551-812 363.544-812q70.006 0 115.231 44.144Q524-723.712 524-653.301q0 72.249-44.865 115.775Q434.271-494 363.748-494ZM750-653.31q0 71.258-44.55 115.284Q660.901-494 590.788-494q-13.094 0-23.441-1.5T543-502q26-27.353 38.5-65.172 12.5-37.82 12.5-85.356 0-47.537-12.655-83.987Q568.69-772.965 543-804.13q10.75-3.62 23.741-5.745t24.01-2.125q69.76 0 114.504 44.635Q750-722.73 750-653.31ZM113-221h501v-21q0-15.353-9.7-30.563Q594.6-287.772 580-293q-69-30-114-39.5T363-342q-56 0-103 9.5T146-293q-13.6 5.081-23.3 20.336Q113-257.409 113-242v21Zm250.133-353q34.517 0 57.692-22.148Q444-618.296 444-652.588q0-34.293-23.004-56.853Q397.991-732 363.58-732q-34.412 0-56.496 22.43Q285-687.14 285-653.035q0 34.517 22.014 56.776T363.133-574ZM363-221Zm1-432Z"/></svg>