<svg xmlns="http://www.w3.org/2000/svg" height="48" viewBox="0 -960 960 960" width="48"><path d="M551-59H409q-17.595 0-31.297-10Q364-79 363-98l-15-94q-14-4-30.838-13.818Q300.323-215.636 289-225l-86 41q-15 8-32.556 1.762-17.555-6.238-26.566-23.114L73-332q-11-15.186-6-32.324Q72-381.462 85-391l80-58.781q-1-5.145-1-14.519v-30.225q0-8.068 1-15.475l-80-59q-13-11-18-27.442T72-629l72-127q10-15 27-20.5t32 1.5l88 40q9.886-7.455 26.943-17.227Q335-762 348-766l15-97q1-18 15.081-28.5T409-902h142q16.963 0 31.135 10.571Q596.308-880.857 598-863l14 96q15 4 31.5 14t27.5 18l86-41q15-7 32.556-.952 17.555 6.047 26.644 21.358l72.6 125.188q10.2 16.29 5.2 33.348Q889-580 876-569l-82 56q1 7.556 2.5 17 1.5 9.444 1.5 16 0 6.556-1.5 15.5-1.5 8.944-2.5 15.5l82 57q13 11.385 17.5 28.192 4.5 16.808-4.611 33.12l-72.778 126.376Q806-187 789-181.5t-32-2.5l-86-41q-11 9-28.5 19.5T613-192l-15 94q-2 19-16.081 29T551-59Zm-72-294q52.757 0 89.879-37.08Q606-427.16 606-479.859q0-51.741-37.121-89.441Q531.757-607 479-607q-54 0-90.5 37.559-36.5 37.558-36.5 89.3 0 52.698 36.5 89.92Q425-353 479-353Zm-.618-57Q449-410 429-430.826q-20-20.826-20-49.292 0-28.465 20.206-49.174Q449.412-550 478.706-550 507-550 528-529.174q21 20.826 21 49.292 0 28.465-21.118 49.174Q506.765-410 478.382-410ZM481-480Zm-36 330h70.363l14.887-111q34.75-9 65.103-25.5 30.354-16.5 54.829-43.5L756-283l31-59-93-67q5-17.636 8-35.226 3-17.589 3-35.682Q705-498 702-516t-7-34l93-68-32-59-105.818 47Q627-658 596.427-677.295 565.853-696.59 529.598-700L516-810h-72l-13 110q-35 7-66.5 25T309-631l-103.717-46L173-618l92 66q-5 17-7.5 35t-2.5 37.545Q255-460 257.5-442t7.5 33l-92 67 32 59 104-47q25 27 56 45t66 25l14 110Z"/></svg>