<svg xmlns="http://www.w3.org/2000/svg" height="48" viewBox="0 -960 960 960" width="48"><path d="m791-122 28-28-75-75v-112h-40v128l87 87ZM190-96q-38.175 0-64.588-27.406Q99-150.812 99-188v-581q0-37.175 26.412-64.088Q151.825-860 190-860h580q38.588 0 65.294 26.912Q862-806.175 862-769v354q-21-16-44.5-26T770-455.976V-769H190v581h291.914q2.274 24.806 9.702 48.576Q499.045-115.655 510-96H190Zm0-118v26-581 313-3 245Zm101-76h200q4-15 11-29t17-28H291v57Zm0-160h344q10 1 17.593.298 7.592-.702 16.407-4.298v-53H291v57Zm0-160h378v-57H291v57ZM723.595-32Q647.38-32 593.19-85.69T539-215.668q0-74.723 54.085-130.027Q647.169-401 723.905-401q75.715 0 130.405 55.305Q909-290.391 909-215.668q0 76.288-54.595 129.978Q799.811-32 723.595-32Z"/></svg>