<svg xmlns="http://www.w3.org/2000/svg" height="48" viewBox="0 -960 960 960" width="48"><path d="M400.296-497q-76.166 0-124.231-48.065T228-669.296q0-76.167 48.065-123.935Q324.13-841 400.296-841t124.935 47.656Q574-745.688 574-668.796q0 75.666-48.769 123.731T400.296-497ZM59-134v-117.014q0-43.986 24.563-76.87Q108.124-360.767 140-376q70-32 136-47t124.529-15q5.471 0 18.471.5t20-.5q-8 15-17.5 42t-9.5 50h-9.587Q349-346 294.166-335.032q-54.835 10.967-111.048 37.652-16.403 8.565-24.76 21.783Q150-262.379 150-247v22h258q3.846 25.935 19.423 51.468Q443-148 457-134H59Zm619.565 31L669-171q-16-3-31.5-12T611-204l-58 14-32-56 49-46q-4-5.842-3.5-20.421T570-333l-49-47 32-55 58 13q11-10 26.409-18.844Q652.818-449.688 669-454l9.565-69H748l11 69q15 4 30.484 13.357Q804.969-431.286 816-422l57-13 34 55-51 47q6 6.842 5 20.921T856-292l51 46-34 56-57-14q-11 12-26.5 20.5T759-171l-11 68h-69.435Zm35.143-136q33.197 0 53.244-20.292Q787-279.584 787-312.792T766.748-366.5q-20.252-20.5-53.5-20.5Q680-387 660-366.244q-20 20.755-20 53.288 0 33.708 20.256 53.832Q680.511-239 713.708-239ZM400.796-588Q435-588 458.5-611.346t23.5-57.619q0-34.685-23.296-58.36-23.297-23.675-58-23.675Q366-751 342.5-727.279T319-669.46q0 34.51 23.178 57.985Q365.355-588 400.796-588Zm.204-81Zm7 444Z"/></svg>