<svg xmlns="http://www.w3.org/2000/svg" height="48" viewBox="0 -960 960 960" width="48"><path d="M271-21q-35.775 0-63.388-26.913Q180-74.825 180-112v-736q0-37.175 27.612-64.088Q235.225-939 271-939h418q35.775 0 63.387 26.912Q780-885.175 780-848v736q0 37.175-27.613 64.088Q724.775-21 689-21H271Zm0-182v91h418v-91H271Zm209.158 75q11.842 0 20.342-8.86 8.5-8.859 8.5-21 0-12.14-8.658-20.64t-20.5-8.5Q468-187 459.5-177.994q-8.5 9.006-8.5 21.362 0 11.932 8.658 20.282t20.5 8.35ZM271-260h418v-500H271v500Zm0-557h418v-31H271v31Zm0 614v91-91Zm0-614v-31 31Z"/></svg>