<svg xmlns="http://www.w3.org/2000/svg" height="48" viewBox="0 -960 960 960" width="48"><path d="M148.14-230Q126-230 112-244.5q-14-14.501-14-34.175 0-20.925 14.175-35.125 14.176-14.2 35.316-14.2 21.141 0 35.325 14.363Q197-299.274 197-279.325q0 20.925-14.447 35.125T148.14-230Zm0-201Q126-431 112-445.358t-14-34.8q0-20.442 14.175-34.642 14.176-14.2 35.316-14.2 21.141 0 35.325 14.358Q197-500.284 197-479.842q0 20.442-14.447 34.642Q168.106-431 148.14-431Zm0-202Q126-633 112-646.875q-14-13.876-14-34.3 0-20.425 14.175-35.125 14.176-14.7 35.316-14.7 21.141 0 35.325 14.988Q197-701.024 197-681.825q0 21.425-14.447 35.125T148.14-633ZM300-233v-92h563v92H300Zm0-201v-91h563v91H300Zm0-201v-92h563v92H300Z"/></svg>